<svg aria-hidden="true" style="position: absolute; width: 0; height: 0; overflow: hidden;" version="1.1" xmlns="http://www.w3.org/2000/svg" xmlns:xlink="http://www.w3.org/1999/xlink">
<defs>

<symbol id="icon-header-bucket" viewBox="0 0 32 32">
<path d="M25.333 9.333h-4v-1.333c0-1.415-0.562-2.771-1.562-3.771s-2.357-1.562-3.771-1.562c-1.414 0-2.771 0.562-3.771 1.562s-1.562 2.357-1.562 3.771v1.333h-4c-0.354 0-0.693 0.14-0.943 0.391s-0.391 0.589-0.391 0.943v14.667c0 1.061 0.421 2.078 1.172 2.828s1.768 1.172 2.828 1.172h13.333c1.061 0 2.078-0.421 2.828-1.172s1.172-1.768 1.172-2.828v-14.667c0-0.354-0.14-0.693-0.391-0.943s-0.589-0.391-0.943-0.391zM13.333 8c0-0.707 0.281-1.386 0.781-1.886s1.178-0.781 1.886-0.781c0.707 0 1.385 0.281 1.886 0.781s0.781 1.178 0.781 1.886v1.333h-5.333v-1.333zM24 25.333c0 0.354-0.14 0.693-0.391 0.943s-0.589 0.391-0.943 0.391h-13.333c-0.354 0-0.693-0.14-0.943-0.391s-0.391-0.589-0.391-0.943v-13.333h2.667v1.333c0 0.354 0.14 0.693 0.391 0.943s0.589 0.391 0.943 0.391c0.354 0 0.693-0.14 0.943-0.391s0.391-0.589 0.391-0.943v-1.333h5.333v1.333c0 0.354 0.14 0.693 0.39 0.943s0.589 0.391 0.943 0.391 0.693-0.14 0.943-0.391c0.25-0.25 0.391-0.589 0.391-0.943v-1.333h2.667v13.333z"></path>
</symbol>

<symbol id="icon-arrow-up-for-scroll" viewBox="0 0 32 32">
<path fill="#fff" style="fill: var(--color4, #fff)" d="M4.5 19.6l11.2-11.233c0.133-0.133 0.278-0.228 0.433-0.283s0.322-0.084 0.5-0.084c0.178 0 0.345 0.028 0.5 0.084s0.3 0.149 0.433 0.283l11.233 11.233c0.311 0.311 0.467 0.7 0.467 1.167s-0.167 0.867-0.5 1.2c-0.333 0.333-0.722 0.5-1.167 0.5s-0.833-0.167-1.167-0.5l-9.8-9.8-9.8 9.8c-0.311 0.311-0.694 0.467-1.149 0.467s-0.851-0.167-1.184-0.5-0.5-0.722-0.5-1.167c0-0.444 0.167-0.833 0.5-1.167z"></path>
</symbol>

<symbol id="icon-arrow-narrow-right" viewBox="0 0 32 32">
<path fill="none" stroke="#eac645" style="stroke: var(--color5, #eac645)" stroke-linejoin="round" stroke-linecap="round" stroke-miterlimit="4" stroke-width="3.2" d="M5.333 16h21.333M26.667 16l-8-8M26.667 16l-8 8"></path>
</symbol>


<symbol id="icon-email" viewBox="0 0 32 32">
<path stroke-linejoin="round" stroke-linecap="round" stroke-miterlimit="4" stroke-width="2.2857" d="M28.666 24l-8.857-8M12.19 16l-8.857 8M2.667 9.333l10.887 7.621c0.882 0.617 1.322 0.926 1.802 1.045 0.423 0.106 0.866 0.106 1.29 0 0.479-0.12 0.92-0.428 1.802-1.045l10.887-7.621M9.067 26.667h13.867c2.24 0 3.36 0 4.216-0.436 0.753-0.384 1.365-0.995 1.748-1.748 0.436-0.856 0.436-1.976 0.436-4.216v-8.533c0-2.24 0-3.36-0.436-4.216-0.383-0.753-0.995-1.365-1.748-1.748-0.856-0.436-1.976-0.436-4.216-0.436h-13.867c-2.24 0-3.36 0-4.216 0.436-0.753 0.383-1.365 0.995-1.748 1.748-0.436 0.856-0.436 1.976-0.436 4.216v8.533c0 2.24 0 3.36 0.436 4.216 0.384 0.753 0.995 1.365 1.748 1.748 0.856 0.436 1.976 0.436 4.216 0.436z"></path>
</symbol>

<symbol id="icon-password" viewBox="0 0 32 32">
<path stroke-linejoin="round" stroke-linecap="round" stroke-miterlimit="4" stroke-width="2.2857" d="M22.667 14.667v-4c0-3.682-2.985-6.667-6.667-6.667s-6.667 2.985-6.667 6.667v4M10.4 28h11.2c2.24 0 3.36 0 4.216-0.436 0.753-0.383 1.365-0.995 1.748-1.748 0.436-0.856 0.436-1.976 0.436-4.216v-0.533c0-2.24 0-3.36-0.436-4.216-0.383-0.753-0.995-1.365-1.748-1.748-0.856-0.436-1.976-0.436-4.216-0.436h-11.2c-2.24 0-3.36 0-4.216 0.436-0.753 0.384-1.365 0.995-1.748 1.748-0.436 0.856-0.436 1.976-0.436 4.216v0.533c0 2.24 0 3.36 0.436 4.216 0.383 0.753 0.995 1.365 1.748 1.748 0.856 0.436 1.976 0.436 4.216 0.436z"></path>
</symbol>

<symbol id="x-cross" viewBox="0 0 32 32">
<path d="M29.835 0l-13.835 13.882-13.835-13.882-2.119 2.112 13.842 13.888-13.842 13.889 2.119 2.111 13.835-13.881 13.835 13.881 2.119-2.111-13.842-13.889 13.842-13.888z"></path>
</symbol>

<symbol id="icon-burger-menu" viewBox="0 0 32 32">
<path stroke-linejoin="round" stroke-linecap="round" stroke-miterlimit="4" stroke-width="2.2857" d="M22.667 13.333h-18.667"></path>
<path stroke-linejoin="round" stroke-linecap="round" stroke-miterlimit="4" stroke-width="2.2857" d="M28 8h-24"></path>
<path stroke-linejoin="round" stroke-linecap="round" stroke-miterlimit="4" stroke-width="2.2857" d="M28 18.667h-24"></path>
<path stroke-linejoin="round" stroke-linecap="round" stroke-miterlimit="4" stroke-width="2.2857" d="M22.667 24h-18.667"></path>
</symbol>

<symbol id="icon-donate" viewBox="0 0 32 32">
<path d="M15.053 17.867c0.124 0.125 0.271 0.224 0.434 0.292s0.337 0.102 0.513 0.102 0.35-0.035 0.513-0.102c0.162-0.068 0.31-0.167 0.434-0.292l6.107-6.12c0.124-0.125 0.272-0.224 0.434-0.292s0.337-0.103 0.513-0.103 0.35 0.035 0.513 0.103c0.162 0.068 0.31 0.167 0.434 0.292 0.248 0.25 0.388 0.588 0.388 0.94s-0.139 0.69-0.388 0.94l-6.12 6.12c-0.75 0.749-1.767 1.17-2.827 1.17s-2.077-0.421-2.827-1.17l-6.12-6.12c-0.246-0.248-0.385-0.584-0.387-0.933-0.001-0.175 0.033-0.349 0.099-0.512s0.164-0.31 0.288-0.435c0.124-0.125 0.271-0.224 0.434-0.292s0.337-0.103 0.513-0.103c0.176 0 0.35 0.035 0.513 0.103s0.31 0.167 0.434 0.292l6.107 6.12z"></path>
</symbol>
<symbol id="icon-align-left" viewBox="0 0 32 32">
<path stroke-linejoin="round" stroke-linecap="round" stroke-miterlimit="4" stroke-width="2.2857" d="M22.667 13.333h-18.667"></path>
<path stroke-linejoin="round" stroke-linecap="round" stroke-miterlimit="4" stroke-width="2.2857" d="M28 8h-24"></path>
<path stroke-linejoin="round" stroke-linecap="round" stroke-miterlimit="4" stroke-width="2.2857" d="M28 18.667h-24"></path>
<path stroke-linejoin="round" stroke-linecap="round" stroke-miterlimit="4" stroke-width="2.2857" d="M22.667 24h-18.667"></path>
</symbol>
<svg id="emblem" width="20" height="32" viewBox="0 0 20 32" fill="#ffffff" xmlns="http://www.w3.org/2000/svg">
<path d="M9.00548 30.8877C7.26703 29.6252 6.0141 27.7313 5.59123 25.5369H0V2.41992C2.99139 3.86285 5.1527 7.01926 5.38763 10.2959L6.23336 16.7891L5.82615 16.744C4.93344 16.744 4.15035 17.5557 4.15035 18.3523C4.15035 19.1038 4.7455 19.7351 5.52858 19.9004L6.54659 20.1259C8.2224 17.0747 9.17776 14.0836 9.17776 11.1527C9.17776 8.50728 8.81754 5.86191 8.75489 3.15641C8.75489 1.95397 9.24041 0.85674 10.0078 0C10.7909 0.85674 11.2608 1.95397 11.2608 3.15641C11.2608 5.86191 10.8379 8.50728 10.8379 11.1527C10.8379 14.0836 11.7933 17.0747 13.4691 20.1259L14.4871 19.9004C15.2702 19.7351 15.8653 19.0888 15.8653 18.3523C15.8653 17.5406 15.0822 16.744 14.1895 16.744L13.7666 16.8041L14.6124 10.3109C15.0352 7.03429 17.0086 3.86285 20 2.43495V25.5519H14.4244C14.0016 27.7313 12.8113 29.7003 11.0102 30.9028C10.5873 31.1884 10.2271 31.5341 9.99217 32C9.77291 31.5341 9.41269 31.1884 9.00548 30.8877ZM2.64683 17.5557C2.88175 16.6989 3.53955 15.9474 4.38528 15.4814L3.72749 10.1306C3.49256 8.46219 2.77212 6.97417 1.69146 5.75669V17.5406H2.64683V17.5557ZM5.46593 23.9286C5.46593 23.117 5.59123 22.3805 5.76351 21.6289L4.98042 21.4486C3.83712 21.1029 2.9444 20.2461 2.64683 19.1489H1.69146V23.9286H5.46593ZM9.17776 23.9286C9.17776 22.9516 8.39467 22.0949 7.37666 21.9746C7.20438 22.6059 7.07909 23.2372 7.07909 23.9286H9.17776ZM9.17776 25.5519H7.31402C7.61159 26.8145 8.26938 27.9718 9.17776 28.9488V25.5519ZM11.8089 20.5467C11.0885 19.2842 10.4307 17.9615 10.0078 16.5787C9.58496 17.9615 8.92717 19.2842 8.20673 20.5467C8.92717 20.7121 9.52232 21.178 10.0078 21.7041C10.4933 21.178 11.0885 20.7121 11.8089 20.5467ZM12.9522 23.9286C12.9522 23.2372 12.8269 22.6059 12.6547 21.9746C11.6366 22.0949 10.8536 22.9516 10.8536 23.9286H12.9522ZM12.7173 25.5519H10.8536V28.9488C11.7619 27.9568 12.4197 26.8145 12.7173 25.5519ZM18.3399 23.9286V19.1489H17.3845C17.0869 20.2461 16.1785 21.1029 15.0509 21.4486L14.2678 21.6289C14.4401 22.3805 14.5654 23.117 14.5654 23.9286H18.3399ZM18.3399 17.5557V5.75669C17.2592 6.95914 16.4761 8.46219 16.3038 10.1306L15.646 15.4814C16.4918 15.9474 17.1496 16.6839 17.3845 17.5557H18.3399Z" fill="white"/>
</svg>

 <symbol id="icon-logo-header" viewBox="0 0 32 32">
      <path fill="#f6f6f6" d="m0 0 16.343 16.171L32 32V0H0z" style="fill:var(--color1, #f6f6f6)"/>
      <path fill="#f6f6f6" d="M4.457 4.229 16.4 16.058l11.257 11.486h-23.2V4.23z" style="fill:var(--color1, #f6f6f6)"/>
      <path fill="#4f2ee8" d="M27.733 27.618 15.79 15.789 4.533 4.303h23.2v23.314z" style="fill:var(--color2, #4f2ee8)"/>
      <path fill="#4f2ee8" d="m9.257 9.029 13.6 13.6h-13.6v-13.6z" style="fill:var(--color2, #4f2ee8)"/>
      <path fill="#f6f6f6" d="m9.257 9.029 13.6 13.6v-13.6h-13.6z" style="fill:var(--color1, #f6f6f6)"/>
    </symbol>

<symbol id="icon-bookshelf" viewBox="0 0 176 32">
      <path d="M22.176 8.533c0-4.731-3.497-7.406-9.545-7.406H0v29.417h13.33c6.089 0 9.998-2.921 9.998-8.599 0-4.402-2.633-6.665-5.719-7.2v-.082c2.427-.823 4.567-2.51 4.567-6.13zm-17.28 4.772V5.282h7.858c2.921 0 4.526 1.44 4.526 4.032s-1.317 3.991-4.814 3.991h-7.57zm0 3.662h8.599c3.086 0 4.937 1.687 4.937 4.69 0 2.757-1.275 4.731-5.472 4.731H4.896v-9.422zM35.89 31.161c-6.583 0-10.574-4.567-10.574-11.109S29.307 8.943 35.89 8.943s10.574 4.567 10.574 11.109-3.991 11.109-10.574 11.109zm0-3.538c4.114 0 6.254-3.25 6.254-7.57 0-4.361-2.139-7.57-6.254-7.57s-6.254 3.209-6.254 7.57c0 4.32 2.139 7.57 6.254 7.57zM58.912 31.161c-6.583 0-10.574-4.567-10.574-11.109S52.329 8.943 58.912 8.943s10.574 4.567 10.574 11.109-3.991 11.109-10.574 11.109zm0-3.538c4.114 0 6.254-3.25 6.254-7.57 0-4.361-2.139-7.57-6.254-7.57s-6.254 3.209-6.254 7.57c0 4.32 2.139 7.57 6.254 7.57zM72.472 1.127v29.417h4.32v-7.611l2.921-2.757 6.624 10.368h5.184l-8.846-13.207 7.982-7.817H85.35l-8.558 8.434V1.127h-4.32zM101.935 17.831c-3.045-.699-5.39-.864-5.39-3.003 0-1.481 1.399-2.469 3.991-2.469 3.374 0 4.197 1.687 4.485 3.333h4.197c-.288-3.662-3.003-6.747-8.722-6.747-5.266 0-8.311 2.757-8.311 6.213 0 4.773 4.526 5.431 7.858 6.213 3.086.741 5.595.946 5.595 3.579 0 1.317-1.275 2.798-4.279 2.798-4.443 0-5.431-1.934-5.637-4.197h-4.197c.206 4.443 3.127 7.611 9.915 7.611 5.102 0 8.558-2.51 8.558-6.542 0-5.019-4.197-5.883-8.064-6.789zM124.123 8.944c-3.538 0-5.719 1.646-6.83 3.291h-.082V1.126h-4.32v29.417h4.32V17.748c0-3.127 2.263-5.143 5.431-5.143 3.003 0 4.197 1.81 4.197 4.649v13.289h4.361V16.02c0-4.814-3.086-7.077-7.077-7.077zM144.448 27.623c-3.826 0-6.089-2.921-6.089-6.459h16.128c0-7.488-3.333-12.219-10.121-12.219-6.336 0-10.327 4.279-10.327 11.109 0 6.583 3.991 11.109 10.533 11.109 5.39 0 8.517-3.045 9.586-7.035h-4.32c-.37 1.275-1.81 3.497-5.39 3.497zm-.082-15.264c3.497 0 5.801 2.345 5.801 5.595h-11.808c0-3.25 2.51-5.595 6.007-5.595zM157.531 1.127v29.417h4.361V1.127h-4.361zM176.003 4.665V1.127a15.12 15.12 0 0 0-2.88-.288c-3.456 0-5.349 1.563-5.349 6.007V9.52h-3.003v3.538h3.003v17.486h4.361V13.058h3.867V9.52h-3.867V7.216c0-2.386 1.07-2.674 3.867-2.551z"/>

<symbol id="icon-user-fill" viewBox="0 0 32 32">
      <path fill="#4f2ee8" d="M5.333 29.333a10.666 10.666 0 0 1 21.332 0H5.332zm10.667-12c-4.42 0-8-3.58-8-8s3.58-8 8-8 8 3.58 8 8-3.58 8-8 8z" style="fill:var(--color1, #4f2ee8)"/>

<symbol id="icon-arrow-down" viewBox="0 0 28 32">
<path fill="#fff" style="fill: var(--color1, #fff)" d="M5.898 12h16.513l-7.423 8.391c-0.221 0.25-0.521 0.39-0.834 0.39s-0.613-0.14-0.834-0.39l-7.422-8.391z"></path>
</symbol>

<symbol id="hamburger-menu" viewBox="0 0 32 32">
<path d="M4.5 6.5c-0.276 0-0.5 0.224-0.5 0.5v0 4c0 0.276 0.224 0.5 0.5 0.5h22.511c0.008 0.28 0.017 0.527 0.024 1.043 0.005 0.355 0.007 0.695 0.004 0.957h-22.539c-0.276 0-0.5 0.224-0.5 0.5v0 4c0 0.276 0.224 0.5 0.5 0.5h22.508c0.005 0.276 0.010 0.503 0.016 1.005 0.004 0.364 0.005 0.723 0.003 0.995h-22.526c-0.276 0-0.5 0.224-0.5 0.5v0 4c0 0.276 0.224 0.5 0.5 0.5h23c0.002 0 0.005 0 0.007 0 0.276 0 0.5-0.224 0.5-0.5s-0.224-0.5-0.5-0.5c-0.003 0-0.005 0-0.007 0h-22.5v-3h22.5c0 0 0.177-0.032 0.178-0.032s0.128-0.071 0.128-0.071c0-0 0.057-0.050 0.076-0.072s0.032-0.042 0.043-0.059c0.043-0.068 0.051-0.103 0.060-0.13 0.016-0.054 0.018-0.078 0.021-0.103 0.007-0.049 0.009-0.088 0.012-0.136 0.005-0.096 0.007-0.217 0.009-0.361 0.003-0.288 0.001-0.664-0.003-1.041-0.008-0.753-0.023-1.506-0.023-1.506-0.006-0.271-0.228-0.489-0.5-0.489-0 0-0 0-0 0h-22.5v-3l22.498-0.001c0.010 0.001 0.029 0.003 0.029 0.003s0.132-0.024 0.133-0.024 0.077-0.031 0.107-0.050c0.061-0.037 0.099-0.077 0.126-0.109 0.108-0.131 0.097-0.174 0.106-0.213 0.020-0.077 0.021-0.115 0.025-0.165 0.008-0.1 0.011-0.218 0.014-0.361 0.005-0.288 0.002-0.668-0.004-1.052-0.012-0.767-0.035-1.542-0.035-1.542-0.008-0.27-0.229-0.485-0.5-0.485-0 0-0 0-0 0h-22.5v-3h22.5c0.002 0 0.005 0 0.007 0 0.276 0 0.5-0.224 0.5-0.5s-0.224-0.5-0.5-0.5c-0.003 0-0.005 0-0.007 0h-23z"></path>
</symbol>
</defs>
</svg>
