<svg aria-hidden="true" style="position: absolute; width: 0; height: 0; overflow: hidden;" version="1.1" xmlns="http://www.w3.org/2000/svg" xmlns:xlink="http://www.w3.org/1999/xlink">
<defs>

<symbol id="icon-header-bucket" viewBox="0 0 32 32">
<path d="M25.333 9.333h-4v-1.333c0-1.415-0.562-2.771-1.562-3.771s-2.357-1.562-3.771-1.562c-1.414 0-2.771 0.562-3.771 1.562s-1.562 2.357-1.562 3.771v1.333h-4c-0.354 0-0.693 0.14-0.943 0.391s-0.391 0.589-0.391 0.943v14.667c0 1.061 0.421 2.078 1.172 2.828s1.768 1.172 2.828 1.172h13.333c1.061 0 2.078-0.421 2.828-1.172s1.172-1.768 1.172-2.828v-14.667c0-0.354-0.14-0.693-0.391-0.943s-0.589-0.391-0.943-0.391zM13.333 8c0-0.707 0.281-1.386 0.781-1.886s1.178-0.781 1.886-0.781c0.707 0 1.385 0.281 1.886 0.781s0.781 1.178 0.781 1.886v1.333h-5.333v-1.333zM24 25.333c0 0.354-0.14 0.693-0.391 0.943s-0.589 0.391-0.943 0.391h-13.333c-0.354 0-0.693-0.14-0.943-0.391s-0.391-0.589-0.391-0.943v-13.333h2.667v1.333c0 0.354 0.14 0.693 0.391 0.943s0.589 0.391 0.943 0.391c0.354 0 0.693-0.14 0.943-0.391s0.391-0.589 0.391-0.943v-1.333h5.333v1.333c0 0.354 0.14 0.693 0.39 0.943s0.589 0.391 0.943 0.391 0.693-0.14 0.943-0.391c0.25-0.25 0.391-0.589 0.391-0.943v-1.333h2.667v13.333z"></path>
</symbol>

<symbol id="icon-arrow-up-for-scroll" viewBox="0 0 32 32">
<path fill="#fff" style="fill: var(--color4, #fff)" d="M4.5 19.6l11.2-11.233c0.133-0.133 0.278-0.228 0.433-0.283s0.322-0.084 0.5-0.084c0.178 0 0.345 0.028 0.5 0.084s0.3 0.149 0.433 0.283l11.233 11.233c0.311 0.311 0.467 0.7 0.467 1.167s-0.167 0.867-0.5 1.2c-0.333 0.333-0.722 0.5-1.167 0.5s-0.833-0.167-1.167-0.5l-9.8-9.8-9.8 9.8c-0.311 0.311-0.694 0.467-1.149 0.467s-0.851-0.167-1.184-0.5-0.5-0.722-0.5-1.167c0-0.444 0.167-0.833 0.5-1.167z"></path>
</symbol>

<symbol id="icon-arrow-narrow-right" viewBox="0 0 32 32">
<path fill="none" stroke="#eac645" style="stroke: var(--color5, #eac645)" stroke-linejoin="round" stroke-linecap="round" stroke-miterlimit="4" stroke-width="3.2" d="M5.333 16h21.333M26.667 16l-8-8M26.667 16l-8 8"></path>
</symbol>


<symbol id="icon-email" viewBox="0 0 32 32">
<path stroke-linejoin="round" stroke-linecap="round" stroke-miterlimit="4" stroke-width="2.2857" d="M28.666 24l-8.857-8M12.19 16l-8.857 8M2.667 9.333l10.887 7.621c0.882 0.617 1.322 0.926 1.802 1.045 0.423 0.106 0.866 0.106 1.29 0 0.479-0.12 0.92-0.428 1.802-1.045l10.887-7.621M9.067 26.667h13.867c2.24 0 3.36 0 4.216-0.436 0.753-0.384 1.365-0.995 1.748-1.748 0.436-0.856 0.436-1.976 0.436-4.216v-8.533c0-2.24 0-3.36-0.436-4.216-0.383-0.753-0.995-1.365-1.748-1.748-0.856-0.436-1.976-0.436-4.216-0.436h-13.867c-2.24 0-3.36 0-4.216 0.436-0.753 0.383-1.365 0.995-1.748 1.748-0.436 0.856-0.436 1.976-0.436 4.216v8.533c0 2.24 0 3.36 0.436 4.216 0.384 0.753 0.995 1.365 1.748 1.748 0.856 0.436 1.976 0.436 4.216 0.436z"></path>
</symbol>

<symbol id="icon-password" viewBox="0 0 32 32">
<path stroke-linejoin="round" stroke-linecap="round" stroke-miterlimit="4" stroke-width="2.2857" d="M22.667 14.667v-4c0-3.682-2.985-6.667-6.667-6.667s-6.667 2.985-6.667 6.667v4M10.4 28h11.2c2.24 0 3.36 0 4.216-0.436 0.753-0.383 1.365-0.995 1.748-1.748 0.436-0.856 0.436-1.976 0.436-4.216v-0.533c0-2.24 0-3.36-0.436-4.216-0.383-0.753-0.995-1.365-1.748-1.748-0.856-0.436-1.976-0.436-4.216-0.436h-11.2c-2.24 0-3.36 0-4.216 0.436-0.753 0.384-1.365 0.995-1.748 1.748-0.436 0.856-0.436 1.976-0.436 4.216v0.533c0 2.24 0 3.36 0.436 4.216 0.383 0.753 0.995 1.365 1.748 1.748 0.856 0.436 1.976 0.436 4.216 0.436z"></path>
</symbol>

<symbol id="x-cross" viewBox="0 0 32 32">
<path d="M29.835 0l-13.835 13.882-13.835-13.882-2.119 2.112 13.842 13.888-13.842 13.889 2.119 2.111 13.835-13.881 13.835 13.881 2.119-2.111-13.842-13.889 13.842-13.888z"></path>
</symbol>

<symbol id="icon-burger-menu" viewBox="0 0 32 32">
<path stroke-linejoin="round" stroke-linecap="round" stroke-miterlimit="4" stroke-width="2.2857" d="M22.667 13.333h-18.667"></path>
<path stroke-linejoin="round" stroke-linecap="round" stroke-miterlimit="4" stroke-width="2.2857" d="M28 8h-24"></path>
<path stroke-linejoin="round" stroke-linecap="round" stroke-miterlimit="4" stroke-width="2.2857" d="M28 18.667h-24"></path>
<path stroke-linejoin="round" stroke-linecap="round" stroke-miterlimit="4" stroke-width="2.2857" d="M22.667 24h-18.667"></path>
</symbol>

<symbol id="icon-donate" viewBox="0 0 32 32">
<path d="M15.053 17.867c0.124 0.125 0.271 0.224 0.434 0.292s0.337 0.102 0.513 0.102 0.35-0.035 0.513-0.102c0.162-0.068 0.31-0.167 0.434-0.292l6.107-6.12c0.124-0.125 0.272-0.224 0.434-0.292s0.337-0.103 0.513-0.103 0.35 0.035 0.513 0.103c0.162 0.068 0.31 0.167 0.434 0.292 0.248 0.25 0.388 0.588 0.388 0.94s-0.139 0.69-0.388 0.94l-6.12 6.12c-0.75 0.749-1.767 1.17-2.827 1.17s-2.077-0.421-2.827-1.17l-6.12-6.12c-0.246-0.248-0.385-0.584-0.387-0.933-0.001-0.175 0.033-0.349 0.099-0.512s0.164-0.31 0.288-0.435c0.124-0.125 0.271-0.224 0.434-0.292s0.337-0.103 0.513-0.103c0.176 0 0.35 0.035 0.513 0.103s0.31 0.167 0.434 0.292l6.107 6.12z"></path>
</symbol>
<symbol id="icon-align-left" viewBox="0 0 32 32">
<path stroke-linejoin="round" stroke-linecap="round" stroke-miterlimit="4" stroke-width="2.2857" d="M22.667 13.333h-18.667"></path>
<path stroke-linejoin="round" stroke-linecap="round" stroke-miterlimit="4" stroke-width="2.2857" d="M28 8h-24"></path>
<path stroke-linejoin="round" stroke-linecap="round" stroke-miterlimit="4" stroke-width="2.2857" d="M28 18.667h-24"></path>
<path stroke-linejoin="round" stroke-linecap="round" stroke-miterlimit="4" stroke-width="2.2857" d="M22.667 24h-18.667"></path>
</symbol>
<svg id="emblem" width="20" height="32" viewBox="0 0 20 32" fill="#ffffff" xmlns="http://www.w3.org/2000/svg">
<path d="M9.00548 30.8877C7.26703 29.6252 6.0141 27.7313 5.59123 25.5369H0V2.41992C2.99139 3.86285 5.1527 7.01926 5.38763 10.2959L6.23336 16.7891L5.82615 16.744C4.93344 16.744 4.15035 17.5557 4.15035 18.3523C4.15035 19.1038 4.7455 19.7351 5.52858 19.9004L6.54659 20.1259C8.2224 17.0747 9.17776 14.0836 9.17776 11.1527C9.17776 8.50728 8.81754 5.86191 8.75489 3.15641C8.75489 1.95397 9.24041 0.85674 10.0078 0C10.7909 0.85674 11.2608 1.95397 11.2608 3.15641C11.2608 5.86191 10.8379 8.50728 10.8379 11.1527C10.8379 14.0836 11.7933 17.0747 13.4691 20.1259L14.4871 19.9004C15.2702 19.7351 15.8653 19.0888 15.8653 18.3523C15.8653 17.5406 15.0822 16.744 14.1895 16.744L13.7666 16.8041L14.6124 10.3109C15.0352 7.03429 17.0086 3.86285 20 2.43495V25.5519H14.4244C14.0016 27.7313 12.8113 29.7003 11.0102 30.9028C10.5873 31.1884 10.2271 31.5341 9.99217 32C9.77291 31.5341 9.41269 31.1884 9.00548 30.8877ZM2.64683 17.5557C2.88175 16.6989 3.53955 15.9474 4.38528 15.4814L3.72749 10.1306C3.49256 8.46219 2.77212 6.97417 1.69146 5.75669V17.5406H2.64683V17.5557ZM5.46593 23.9286C5.46593 23.117 5.59123 22.3805 5.76351 21.6289L4.98042 21.4486C3.83712 21.1029 2.9444 20.2461 2.64683 19.1489H1.69146V23.9286H5.46593ZM9.17776 23.9286C9.17776 22.9516 8.39467 22.0949 7.37666 21.9746C7.20438 22.6059 7.07909 23.2372 7.07909 23.9286H9.17776ZM9.17776 25.5519H7.31402C7.61159 26.8145 8.26938 27.9718 9.17776 28.9488V25.5519ZM11.8089 20.5467C11.0885 19.2842 10.4307 17.9615 10.0078 16.5787C9.58496 17.9615 8.92717 19.2842 8.20673 20.5467C8.92717 20.7121 9.52232 21.178 10.0078 21.7041C10.4933 21.178 11.0885 20.7121 11.8089 20.5467ZM12.9522 23.9286C12.9522 23.2372 12.8269 22.6059 12.6547 21.9746C11.6366 22.0949 10.8536 22.9516 10.8536 23.9286H12.9522ZM12.7173 25.5519H10.8536V28.9488C11.7619 27.9568 12.4197 26.8145 12.7173 25.5519ZM18.3399 23.9286V19.1489H17.3845C17.0869 20.2461 16.1785 21.1029 15.0509 21.4486L14.2678 21.6289C14.4401 22.3805 14.5654 23.117 14.5654 23.9286H18.3399ZM18.3399 17.5557V5.75669C17.2592 6.95914 16.4761 8.46219 16.3038 10.1306L15.646 15.4814C16.4918 15.9474 17.1496 16.6839 17.3845 17.5557H18.3399Z" fill="white"/>
</svg>

 <symbol id="icon-logo-header" viewBox="0 0 32 32">
      <path fill="#f6f6f6" d="m0 0 16.343 16.171L32 32V0H0z" style="fill:var(--color1, #f6f6f6)"/>
      <path fill="#f6f6f6" d="M4.457 4.229 16.4 16.058l11.257 11.486h-23.2V4.23z" style="fill:var(--color1, #f6f6f6)"/>
      <path fill="#4f2ee8" d="M27.733 27.618 15.79 15.789 4.533 4.303h23.2v23.314z" style="fill:var(--color2, #4f2ee8)"/>
      <path fill="#4f2ee8" d="m9.257 9.029 13.6 13.6h-13.6v-13.6z" style="fill:var(--color2, #4f2ee8)"/>
      <path fill="#f6f6f6" d="m9.257 9.029 13.6 13.6v-13.6h-13.6z" style="fill:var(--color1, #f6f6f6)"/>
    </symbol>

<symbol id="icon-bookshelf" viewBox="0 0 176 32">
      <path d="M22.176 8.533c0-4.731-3.497-7.406-9.545-7.406H0v29.417h13.33c6.089 0 9.998-2.921 9.998-8.599 0-4.402-2.633-6.665-5.719-7.2v-.082c2.427-.823 4.567-2.51 4.567-6.13zm-17.28 4.772V5.282h7.858c2.921 0 4.526 1.44 4.526 4.032s-1.317 3.991-4.814 3.991h-7.57zm0 3.662h8.599c3.086 0 4.937 1.687 4.937 4.69 0 2.757-1.275 4.731-5.472 4.731H4.896v-9.422zM35.89 31.161c-6.583 0-10.574-4.567-10.574-11.109S29.307 8.943 35.89 8.943s10.574 4.567 10.574 11.109-3.991 11.109-10.574 11.109zm0-3.538c4.114 0 6.254-3.25 6.254-7.57 0-4.361-2.139-7.57-6.254-7.57s-6.254 3.209-6.254 7.57c0 4.32 2.139 7.57 6.254 7.57zM58.912 31.161c-6.583 0-10.574-4.567-10.574-11.109S52.329 8.943 58.912 8.943s10.574 4.567 10.574 11.109-3.991 11.109-10.574 11.109zm0-3.538c4.114 0 6.254-3.25 6.254-7.57 0-4.361-2.139-7.57-6.254-7.57s-6.254 3.209-6.254 7.57c0 4.32 2.139 7.57 6.254 7.57zM72.472 1.127v29.417h4.32v-7.611l2.921-2.757 6.624 10.368h5.184l-8.846-13.207 7.982-7.817H85.35l-8.558 8.434V1.127h-4.32zM101.935 17.831c-3.045-.699-5.39-.864-5.39-3.003 0-1.481 1.399-2.469 3.991-2.469 3.374 0 4.197 1.687 4.485 3.333h4.197c-.288-3.662-3.003-6.747-8.722-6.747-5.266 0-8.311 2.757-8.311 6.213 0 4.773 4.526 5.431 7.858 6.213 3.086.741 5.595.946 5.595 3.579 0 1.317-1.275 2.798-4.279 2.798-4.443 0-5.431-1.934-5.637-4.197h-4.197c.206 4.443 3.127 7.611 9.915 7.611 5.102 0 8.558-2.51 8.558-6.542 0-5.019-4.197-5.883-8.064-6.789zM124.123 8.944c-3.538 0-5.719 1.646-6.83 3.291h-.082V1.126h-4.32v29.417h4.32V17.748c0-3.127 2.263-5.143 5.431-5.143 3.003 0 4.197 1.81 4.197 4.649v13.289h4.361V16.02c0-4.814-3.086-7.077-7.077-7.077zM144.448 27.623c-3.826 0-6.089-2.921-6.089-6.459h16.128c0-7.488-3.333-12.219-10.121-12.219-6.336 0-10.327 4.279-10.327 11.109 0 6.583 3.991 11.109 10.533 11.109 5.39 0 8.517-3.045 9.586-7.035h-4.32c-.37 1.275-1.81 3.497-5.39 3.497zm-.082-15.264c3.497 0 5.801 2.345 5.801 5.595h-11.808c0-3.25 2.51-5.595 6.007-5.595zM157.531 1.127v29.417h4.361V1.127h-4.361zM176.003 4.665V1.127a15.12 15.12 0 0 0-2.88-.288c-3.456 0-5.349 1.563-5.349 6.007V9.52h-3.003v3.538h3.003v17.486h4.361V13.058h3.867V9.52h-3.867V7.216c0-2.386 1.07-2.674 3.867-2.551z"/>

<symbol id="icon-user-fill" viewBox="0 0 32 32">
      <path fill="#4f2ee8" d="M5.333 29.333a10.666 10.666 0 0 1 21.332 0H5.332zm10.667-12c-4.42 0-8-3.58-8-8s3.58-8 8-8 8 3.58 8 8-3.58 8-8 8z" style="fill:var(--color1, #4f2ee8)"/>

<symbol id="icon-arrow-down" viewBox="0 0 28 32">
<path fill="#fff" style="fill: var(--color1, #fff)" d="M5.898 12h16.513l-7.423 8.391c-0.221 0.25-0.521 0.39-0.834 0.39s-0.613-0.14-0.834-0.39l-7.422-8.391z"></path>
</symbol>

<symbol id="hamburger-menu" viewBox="0 0 32 32">
<path d="M4.5 6.5c-0.276 0-0.5 0.224-0.5 0.5v0 4c0 0.276 0.224 0.5 0.5 0.5h22.511c0.008 0.28 0.017 0.527 0.024 1.043 0.005 0.355 0.007 0.695 0.004 0.957h-22.539c-0.276 0-0.5 0.224-0.5 0.5v0 4c0 0.276 0.224 0.5 0.5 0.5h22.508c0.005 0.276 0.010 0.503 0.016 1.005 0.004 0.364 0.005 0.723 0.003 0.995h-22.526c-0.276 0-0.5 0.224-0.5 0.5v0 4c0 0.276 0.224 0.5 0.5 0.5h23c0.002 0 0.005 0 0.007 0 0.276 0 0.5-0.224 0.5-0.5s-0.224-0.5-0.5-0.5c-0.003 0-0.005 0-0.007 0h-22.5v-3h22.5c0 0 0.177-0.032 0.178-0.032s0.128-0.071 0.128-0.071c0-0 0.057-0.050 0.076-0.072s0.032-0.042 0.043-0.059c0.043-0.068 0.051-0.103 0.060-0.13 0.016-0.054 0.018-0.078 0.021-0.103 0.007-0.049 0.009-0.088 0.012-0.136 0.005-0.096 0.007-0.217 0.009-0.361 0.003-0.288 0.001-0.664-0.003-1.041-0.008-0.753-0.023-1.506-0.023-1.506-0.006-0.271-0.228-0.489-0.5-0.489-0 0-0 0-0 0h-22.5v-3l22.498-0.001c0.010 0.001 0.029 0.003 0.029 0.003s0.132-0.024 0.133-0.024 0.077-0.031 0.107-0.050c0.061-0.037 0.099-0.077 0.126-0.109 0.108-0.131 0.097-0.174 0.106-0.213 0.020-0.077 0.021-0.115 0.025-0.165 0.008-0.1 0.011-0.218 0.014-0.361 0.005-0.288 0.002-0.668-0.004-1.052-0.012-0.767-0.035-1.542-0.035-1.542-0.008-0.27-0.229-0.485-0.5-0.485-0 0-0 0-0 0h-22.5v-3h22.5c0.002 0 0.005 0 0.007 0 0.276 0 0.5-0.224 0.5-0.5s-0.224-0.5-0.5-0.5c-0.003 0-0.005 0-0.007 0h-23z"></path>
</symbol>

<symbol id="icon-quick-view" viewBox="0 0 134 32">
<path fill="#111" style="fill: var(--color1, #111)" d="M15.226 16.269c-1.553 0-2.912-0.343-4.077-1.030s-2.076-1.635-2.733-2.845c-0.657-1.225-0.986-2.636-0.986-4.234s0.329-3.002 0.986-4.211c0.657-1.225 1.568-2.18 2.733-2.867s2.524-1.030 4.077-1.030c1.553 0 2.912 0.343 4.077 1.030s2.068 1.643 2.71 2.867c0.657 1.21 0.986 2.613 0.986 4.211 0 1.538-0.306 2.905-0.918 4.099-0.597 1.195-1.434 2.135-2.509 2.822l3.786 3.853h-3.002l-2.8-2.957c-0.732 0.194-1.508 0.291-2.33 0.291zM15.226 14.141c1.075 0 2.008-0.239 2.8-0.717 0.806-0.478 1.434-1.165 1.882-2.061s0.672-1.964 0.672-3.203c0-1.239-0.224-2.307-0.672-3.203s-1.075-1.583-1.882-2.061c-0.792-0.478-1.725-0.717-2.8-0.717s-2.016 0.239-2.822 0.717c-0.806 0.478-1.434 1.165-1.882 2.061-0.433 0.896-0.65 1.964-0.65 3.203s0.217 2.307 0.65 3.203c0.448 0.896 1.075 1.583 1.882 2.061s1.747 0.717 2.822 0.717zM30.638 16.269c-1.12 0-2.136-0.216-3.046-0.65-0.896-0.448-1.613-1.127-2.15-2.038-0.523-0.911-0.784-2.068-0.784-3.472v-9.789h2.374v9.811c0 1.374 0.328 2.382 0.986 3.024s1.546 0.963 2.666 0.963c1.105 0 1.986-0.321 2.643-0.963s0.986-1.65 0.986-3.024v-9.811h2.374v9.789c0 1.404-0.276 2.561-0.829 3.472-0.538 0.911-1.269 1.59-2.195 2.038-0.911 0.433-1.919 0.65-3.024 0.65zM38.836 16v-15.68h2.374v15.68h-2.374zM50.485 16.269c-1.553 0-2.897-0.336-4.032-1.008-1.12-0.687-1.986-1.635-2.598-2.845-0.612-1.225-0.918-2.636-0.918-4.234 0-1.613 0.306-3.024 0.918-4.234 0.612-1.225 1.478-2.18 2.598-2.867 1.135-0.687 2.479-1.030 4.032-1.030 1.837 0 3.338 0.448 4.502 1.344s1.904 2.15 2.218 3.763h-2.643c-0.209-0.911-0.657-1.635-1.344-2.173s-1.605-0.806-2.755-0.806c-1.568 0-2.808 0.538-3.718 1.613-0.911 1.060-1.366 2.524-1.366 4.39 0 1.852 0.456 3.308 1.366 4.368s2.15 1.59 3.718 1.59c1.15 0 2.068-0.254 2.755-0.762s1.135-1.202 1.344-2.083h2.643c-0.314 1.553-1.053 2.77-2.218 3.651s-2.666 1.322-4.502 1.322zM58.919 16v-15.68h2.374v6.72l6.182-6.72h2.934l-5.802 6.25 5.936 9.43h-2.89l-4.749-7.616-1.613 1.747v5.869h-2.374zM81.101 16l-5.802-15.68h2.531l4.704 13.216 4.726-13.216h2.509l-5.802 15.68h-2.867zM90.881 16v-15.68h2.374v15.68h-2.374zM95.541 16v-15.68h9.968v1.926h-7.594v4.883h6.922v1.882h-6.922v5.062h7.594v1.926h-9.968zM110.645 16.022l-4.234-15.702h2.554l3.114 12.992 3.584-12.992h2.621l3.472 12.992 3.114-12.992h2.554l-4.301 15.68h-2.778l-3.427-12.298-3.539 12.298-2.733 0.022z"></path>
<path fill="#000" style="fill: var(--color2, #000)" d="M11.149 15.238v0zM8.416 12.394l-1.41 0.756 0.004 0.007 1.406-0.764zM8.416 3.949l1.406 0.764 0.004-0.007-1.41-0.756zM19.302 1.082v0zM22.013 3.949l-1.417 0.743 0.005 0.010 0.006 0.010 1.406-0.764zM22.080 12.259l-1.424-0.73-0.007 0.014 1.431 0.716zM19.571 15.082l-0.861-1.348-1.663 1.062 1.383 1.407 1.141-1.121zM23.357 18.934v1.6h3.815l-2.674-2.721-1.141 1.121zM20.355 18.934l-1.162 1.1 0.473 0.5h0.688v-1.6zM17.555 15.978l1.162-1.1-0.653-0.69-0.919 0.244 0.41 1.546zM18.026 13.424l-0.816-1.377-0.011 0.007 0.827 1.37zM19.907 11.363v0zM19.907 4.957v0zM18.026 2.896l-0.827 1.37 0.011 0.007 0.816-1.376zM12.403 2.896v0zM10.522 4.957l-1.431-0.716-0.009 0.019 1.441 0.696zM10.522 11.363l-1.441 0.696 0.010 0.019 1.431-0.716zM12.403 13.424v0zM15.226 14.669c-1.31 0-2.38-0.287-3.264-0.809l-1.626 2.756c1.446 0.852 3.094 1.252 4.89 1.252v-3.2zM11.962 13.86c-0.91-0.537-1.618-1.271-2.14-2.23l-2.812 1.527c0.793 1.46 1.907 2.622 3.326 3.459l1.626-2.756zM9.826 11.637c-0.515-0.959-0.795-2.103-0.795-3.477h-3.2c0 1.822 0.376 3.5 1.176 4.99l2.82-1.513zM9.030 8.16c0-1.374 0.281-2.508 0.792-3.447l-2.812-1.527c-0.804 1.479-1.18 3.153-1.18 4.975h3.2zM9.826 4.705c0.523-0.974 1.23-1.712 2.136-2.246l-1.626-2.756c-1.424 0.84-2.538 2.014-3.33 3.489l2.82 1.513zM11.962 2.46c0.884-0.521 1.954-0.809 3.264-0.809v-3.2c-1.796 0-3.444 0.4-4.89 1.252l1.626 2.756zM15.226 1.651c1.31 0 2.38 0.287 3.264 0.809l1.626-2.756c-1.446-0.853-3.094-1.252-4.89-1.252v3.2zM18.49 2.46c0.902 0.532 1.599 1.265 2.106 2.232l2.834-1.486c-0.777-1.482-1.887-2.66-3.315-3.502l-1.626 2.756zM20.607 4.713c0.511 0.94 0.792 2.073 0.792 3.447h3.2c0-1.822-0.376-3.496-1.18-4.975l-2.812 1.527zM21.398 8.16c0 1.322-0.262 2.432-0.742 3.369l2.848 1.46c0.744-1.451 1.095-3.074 1.095-4.829h-3.2zM20.649 11.544c-0.474 0.949-1.119 1.666-1.939 2.19l1.723 2.697c1.33-0.85 2.358-2.015 3.078-3.455l-2.862-1.431zM18.43 16.203l3.786 3.853 2.283-2.243-3.786-3.853-2.283 2.243zM23.357 17.334h-3.002v3.2h3.002v-3.2zM21.517 17.834l-2.8-2.957-2.324 2.2 2.8 2.957 2.324-2.2zM17.145 14.431c-0.587 0.156-1.225 0.238-1.919 0.238v3.2c0.948 0 1.864-0.112 2.74-0.345l-0.82-3.093zM15.226 15.741c1.319 0 2.548-0.295 3.627-0.947l-1.654-2.739c-0.504 0.304-1.141 0.486-1.973 0.486v3.2zM18.841 14.8c1.089-0.645 1.921-1.571 2.497-2.722l-2.862-1.431c-0.32 0.641-0.743 1.090-1.266 1.4l1.631 2.753zM21.338 12.079c0.582-1.165 0.841-2.489 0.841-3.919h-3.2c0 1.049-0.189 1.86-0.503 2.488l2.862 1.431zM22.179 8.16c0-1.43-0.259-2.754-0.841-3.919l-2.862 1.431c0.314 0.627 0.503 1.439 0.503 2.488h3.2zM21.338 4.241c-0.576-1.151-1.408-2.076-2.497-2.722l-1.631 2.753c0.524 0.31 0.946 0.759 1.266 1.4l2.862-1.431zM18.853 1.526c-1.079-0.652-2.308-0.947-3.627-0.947v3.2c0.832 0 1.469 0.182 1.973 0.486l1.654-2.739zM15.226 0.579c-1.319 0-2.55 0.296-3.638 0.94l1.631 2.753c0.525-0.311 1.176-0.493 2.007-0.493v-3.2zM11.588 1.52c-1.089 0.645-1.921 1.571-2.497 2.722l2.862 1.431c0.32-0.641 0.742-1.090 1.266-1.4l-1.631-2.753zM9.081 4.261c-0.561 1.16-0.809 2.477-0.809 3.899h3.2c0-1.056 0.185-1.875 0.49-2.507l-2.881-1.393zM8.272 8.16c0 1.423 0.248 2.74 0.809 3.899l2.881-1.393c-0.306-0.632-0.49-1.451-0.49-2.507h-3.2zM9.091 12.079c0.576 1.151 1.408 2.076 2.497 2.722l1.631-2.753c-0.524-0.31-0.946-0.759-1.266-1.4l-2.862 1.431zM11.588 14.8c1.088 0.645 2.319 0.94 3.638 0.94v-3.2c-0.831 0-1.482-0.182-2.007-0.493l-1.631 2.753zM27.592 15.619l-0.716 1.431 0.014 0.007 0.014 0.007 0.687-1.445zM25.441 13.581l-1.388 0.796 0.010 0.017 1.378-0.813zM24.657 0.32v-1.6h-1.6v1.6h1.6zM27.032 0.32h1.6v-1.6h-1.6v1.6zM28.017 13.155v0zM34.312 0.32v-1.6h-1.6v1.6h1.6zM36.686 0.32h1.6v-1.6h-1.6v1.6zM35.857 13.581l-1.368-0.83-0.010 0.017 1.378 0.813zM33.662 15.619l0.687 1.445 0.010-0.005-0.697-1.44zM30.638 14.669c-0.909 0-1.686-0.174-2.36-0.495l-1.374 2.89c1.148 0.546 2.402 0.805 3.733 0.805v-3.2zM28.307 14.188c-0.605-0.302-1.098-0.759-1.488-1.421l-2.756 1.626c0.685 1.161 1.625 2.062 2.813 2.656l1.431-2.862zM26.829 12.785c-0.344-0.6-0.572-1.461-0.572-2.676h-3.2c0 1.592 0.295 3.047 0.996 4.268l2.776-1.593zM26.257 10.109v-9.789h-3.2v9.789h3.2zM24.657 1.92h2.374v-3.2h-2.374v3.2zM25.432 0.32v9.811h3.2v-9.811h-3.2zM25.432 10.131c0 1.593 0.378 3.104 1.467 4.168l2.237-2.289c-0.225-0.22-0.504-0.725-0.504-1.88h-3.2zM26.899 14.3c1.019 0.996 2.343 1.419 3.784 1.419v-3.2c-0.799 0-1.252-0.219-1.547-0.508l-2.237 2.289zM30.683 15.718c1.433 0 2.747-0.427 3.761-1.419l-2.237-2.289c-0.299 0.292-0.747 0.508-1.525 0.508v3.2zM34.444 14.3c1.089-1.065 1.467-2.576 1.467-4.168h-3.2c0 1.155-0.279 1.66-0.504 1.88l2.237 2.289zM35.912 10.131v-9.811h-3.2v9.811h3.2zM34.312 1.92h2.374v-3.2h-2.374v3.2zM35.086 0.32v9.789h3.2v-9.789h-3.2zM35.086 10.109c0 1.202-0.237 2.049-0.597 2.642l2.736 1.66c0.745-1.229 1.061-2.696 1.061-4.302h-3.2zM34.48 12.768c-0.382 0.648-0.881 1.105-1.514 1.411l1.394 2.881c1.218-0.589 2.183-1.491 2.876-2.666l-2.756-1.626zM32.975 14.174c-0.676 0.322-1.447 0.495-2.337 0.495v3.2c1.32 0 2.565-0.26 3.711-0.805l-1.374-2.89zM38.836 16h-1.6v1.6h1.6v-1.6zM38.836 0.32v-1.6h-1.6v1.6h1.6zM41.21 0.32h1.6v-1.6h-1.6v1.6zM41.21 16v1.6h1.6v-1.6h-1.6zM40.436 16v-15.68h-3.2v15.68h3.2zM38.836 1.92h2.374v-3.2h-2.374v3.2zM39.61 0.32v15.68h3.2v-15.68h-3.2zM41.21 14.4h-2.374v3.2h2.374v-3.2zM46.453 15.261l-0.836 1.364 0.011 0.007 0.011 0.006 0.815-1.377zM43.855 12.416l-1.431 0.716 0.004 0.007 1.428-0.723zM43.855 3.949l1.428 0.723 0.004-0.007-1.431-0.716zM46.453 1.082l-0.828-1.369-0.008 0.005 0.836 1.364zM54.987 1.395v0zM57.205 5.158v1.6h1.941l-0.371-1.905-1.571 0.305zM54.562 5.158l-1.56 0.358 0.285 1.242h1.274v-1.6zM53.218 2.986v0zM46.744 3.792l1.214 1.043 0.007-0.008-1.221-1.034zM46.744 12.55v0zM53.218 13.379v0zM54.562 11.296v-1.6h-1.265l-0.292 1.231 1.557 0.369zM57.205 11.296l1.568 0.317 0.387-1.917h-1.955v1.6zM54.987 14.947v0zM50.485 14.669c-1.318 0-2.369-0.283-3.217-0.785l-1.63 2.754c1.423 0.842 3.059 1.231 4.847 1.231v-3.2zM47.289 13.897c-0.859-0.527-1.524-1.249-2.007-2.203l-2.855 1.445c0.742 1.465 1.808 2.639 3.189 3.486l1.673-2.728zM45.286 11.7c-0.484-0.968-0.749-2.127-0.749-3.518h-3.2c0 1.805 0.347 3.468 1.087 4.949l2.862-1.431zM44.536 8.182c0-1.409 0.267-2.564 0.746-3.511l-2.855-1.445c-0.745 1.472-1.091 3.14-1.091 4.956h3.2zM45.286 4.664c0.484-0.969 1.15-1.695 2.004-2.219l-1.673-2.728c-1.386 0.85-2.453 2.035-3.193 3.516l2.862 1.431zM47.281 2.45c0.845-0.512 1.892-0.799 3.204-0.799v-3.2c-1.795 0-3.436 0.399-4.86 1.262l1.657 2.738zM50.485 1.651c1.574 0 2.705 0.38 3.527 1.012l1.951-2.536c-1.508-1.16-3.378-1.676-5.478-1.676v3.2zM54.012 2.663c0.819 0.63 1.374 1.522 1.623 2.8l3.141-0.611c-0.379-1.947-1.302-3.564-2.813-4.726l-1.951 2.536zM57.205 3.558h-2.643v3.2h2.643v-3.2zM56.121 4.801c-0.285-1.241-0.92-2.294-1.917-3.075l-1.972 2.52c0.377 0.295 0.637 0.69 0.771 1.271l3.119-0.716zM54.204 1.726c-1.047-0.819-2.348-1.146-3.741-1.146v3.2c0.906 0 1.442 0.21 1.769 0.466l1.972-2.52zM50.463 0.579c-1.979 0-3.688 0.701-4.939 2.179l2.442 2.069c0.57-0.673 1.34-1.047 2.498-1.047v-3.2zM45.531 2.749c-1.233 1.436-1.753 3.313-1.753 5.433h3.2c0-1.614 0.392-2.663 0.98-3.348l-2.427-2.085zM43.778 8.182c0 2.108 0.521 3.977 1.753 5.411l2.427-2.085c-0.59-0.687-0.98-1.73-0.98-3.325h-3.2zM45.531 13.593c1.254 1.46 2.961 2.148 4.932 2.148v-3.2c-1.165 0-1.937-0.372-2.505-1.033l-2.427 2.085zM50.463 15.741c1.375 0 2.663-0.304 3.706-1.075l-1.902-2.573c-0.33 0.244-0.88 0.448-1.804 0.448v3.2zM54.169 14.666c1.010-0.747 1.659-1.776 1.95-3l-3.114-0.739c-0.128 0.537-0.374 0.897-0.738 1.166l1.902 2.573zM54.562 12.896h2.643v-3.2h-2.643v3.2zM55.637 10.979c-0.244 1.206-0.788 2.067-1.615 2.692l1.931 2.552c1.504-1.137 2.437-2.71 2.821-4.611l-3.137-0.633zM54.022 13.671c-0.822 0.622-1.958 0.998-3.537 0.998v3.2c2.094 0 3.96-0.505 5.468-1.646l-1.931-2.552zM58.919 16h-1.6v1.6h1.6v-1.6zM58.919 0.32v-1.6h-1.6v1.6h1.6zM61.293 0.32h1.6v-1.6h-1.6v1.6zM61.293 7.040h-1.6v4.102l2.777-3.019-1.177-1.083zM67.476 0.32v-1.6h-0.702l-0.475 0.517 1.177 1.083zM70.41 0.32l1.173 1.089 2.496-2.689h-3.668v1.6zM64.608 6.57l-1.173-1.089-0.836 0.901 0.655 1.040 1.354-0.852zM70.544 16v1.6h2.898l-1.544-2.452-1.354 0.852zM67.655 16l-1.358 0.847 0.47 0.753h0.888v-1.6zM62.906 8.384l1.358-0.847-1.11-1.78-1.423 1.542 1.176 1.085zM61.293 10.131l-1.176-1.085-0.424 0.46v0.626h1.6zM61.293 16v1.6h1.6v-1.6h-1.6zM60.519 16v-15.68h-3.2v15.68h3.2zM58.919 1.92h2.374v-3.2h-2.374v3.2zM59.693 0.32v6.72h3.2v-6.72h-3.2zM62.471 8.123l6.182-6.72-2.355-2.167-6.182 6.72 2.355 2.167zM67.476 1.92h2.934v-3.2h-2.934v3.2zM69.237-0.769l-5.802 6.25 2.345 2.177 5.802-6.25-2.345-2.177zM63.254 7.422l5.936 9.43 2.708-1.705-5.936-9.43-2.708 1.705zM70.544 14.4h-2.89v3.2h2.89v-3.2zM69.013 15.153l-4.749-7.616-2.715 1.693 4.749 7.616 2.715-1.693zM61.73 7.299l-1.613 1.747 2.351 2.171 1.613-1.747-2.351-2.171zM59.693 10.131v5.869h3.2v-5.869h-3.2zM61.293 14.4h-2.374v3.2h2.374v-3.2zM81.101 16l-1.501 0.555 0.387 1.045h1.114v-1.6zM75.3 0.32v-1.6h-2.298l0.797 2.155 1.5-0.555zM77.831 0.32l1.508-0.537-0.379-1.063h-1.129v1.6zM82.535 13.536l-1.508 0.537 1.504 4.225 1.51-4.223-1.506-0.539zM87.261 0.32v-1.6h-1.127l-0.38 1.061 1.506 0.539zM89.77 0.32l1.5 0.555 0.797-2.155h-2.298v1.6zM83.968 16v1.6h1.114l0.387-1.045-1.5-0.555zM82.602 15.445l-5.802-15.68-3.001 1.11 5.802 15.68 3.001-1.11zM75.3 1.92h2.531v-3.2h-2.531v3.2zM76.323 0.857l4.704 13.216 3.015-1.073-4.704-13.216-3.015 1.073zM84.041 14.075l4.726-13.216-3.013-1.078-4.726 13.216 3.013 1.078zM87.261 1.92h2.509v-3.2h-2.509v3.2zM88.269-0.235l-5.802 15.68 3.001 1.11 5.802-15.68-3.001-1.11zM83.968 14.4h-2.867v3.2h2.867v-3.2zM90.881 16h-1.6v1.6h1.6v-1.6zM90.881 0.32v-1.6h-1.6v1.6h1.6zM93.255 0.32h1.6v-1.6h-1.6v1.6zM93.255 16v1.6h1.6v-1.6h-1.6zM92.481 16v-15.68h-3.2v15.68h3.2zM90.881 1.92h2.374v-3.2h-2.374v3.2zM91.655 0.32v15.68h3.2v-15.68h-3.2zM93.255 14.4h-2.374v3.2h2.374v-3.2zM95.541 16h-1.6v1.6h1.6v-1.6zM95.541 0.32v-1.6h-1.6v1.6h1.6zM105.509 0.32h1.6v-1.6h-1.6v1.6zM105.509 2.246v1.6h1.6v-1.6h-1.6zM97.916 2.246v-1.6h-1.6v1.6h1.6zM97.916 7.13h-1.6v1.6h1.6v-1.6zM104.837 7.13h1.6v-1.6h-1.6v1.6zM104.837 9.011v1.6h1.6v-1.6h-1.6zM97.916 9.011v-1.6h-1.6v1.6h1.6zM97.916 14.074h-1.6v1.6h1.6v-1.6zM105.509 14.074h1.6v-1.6h-1.6v1.6zM105.509 16v1.6h1.6v-1.6h-1.6zM97.141 16v-15.68h-3.2v15.68h3.2zM95.541 1.92h9.968v-3.2h-9.968v3.2zM103.909 0.32v1.926h3.2v-1.926h-3.2zM105.509 0.646h-7.594v3.2h7.594v-3.2zM96.316 2.246v4.883h3.2v-4.883h-3.2zM97.916 8.73h6.922v-3.2h-6.922v3.2zM103.237 7.13v1.882h3.2v-1.882h-3.2zM104.837 7.411h-6.922v3.2h6.922v-3.2zM96.316 9.011v5.062h3.2v-5.062h-3.2zM97.916 15.674h7.594v-3.2h-7.594v3.2zM103.909 14.074v1.926h3.2v-1.926h-3.2zM105.509 14.4h-9.968v3.2h9.968v-3.2zM110.645 16.022l-1.545 0.416 0.322 1.194 1.236-0.010-0.013-1.6zM106.412 0.32v-1.6h-2.089l0.544 2.017 1.545-0.416zM108.965 0.32l1.556-0.373-0.294-1.227h-1.262v1.6zM112.079 13.312l-1.556 0.373 3.098 0.053-1.542-0.425zM115.663 0.32v-1.6h-1.218l-0.324 1.175 1.542 0.425zM118.284 0.32l1.546-0.413-0.317-1.187h-1.228v1.6zM121.756 13.312l-1.546 0.413 3.102-0.040-1.556-0.373zM124.869 0.32v-1.6h-1.262l-0.294 1.227 1.556 0.373zM127.423 0.32l1.543 0.423 0.555-2.023h-2.098v1.6zM123.122 16v1.6h1.22l0.323-1.177-1.543-0.423zM120.344 16l-1.541 0.43 0.326 1.17h1.215v-1.6zM116.917 3.702l1.541-0.43-1.517-5.442-1.562 5.429 1.538 0.442zM113.378 16l0.013 1.6 1.194-0.010 0.33-1.148-1.538-0.443zM112.19 15.606l-4.234-15.702-3.090 0.833 4.234 15.702 3.090-0.833zM106.412 1.92h2.554v-3.2h-2.554v3.2zM107.409 0.693l3.114 12.992 3.112-0.746-3.114-12.992-3.112 0.746zM113.621 13.738l3.584-12.992-3.085-0.851-3.584 12.992 3.085 0.851zM115.663 1.92h2.621v-3.2h-2.621v3.2zM116.738 0.733l3.472 12.992 3.092-0.826-3.472-12.992-3.092 0.826zM123.312 13.685l3.114-12.992-3.112-0.746-3.114 12.992 3.112 0.746zM124.869 1.92h2.554v-3.2h-2.554v3.2zM125.88-0.103l-4.301 15.68 3.086 0.846 4.301-15.68-3.086-0.846zM123.122 14.4h-2.778v3.2h2.778v-3.2zM121.886 15.57l-3.427-12.298-3.083 0.859 3.427 12.298 3.083-0.859zM115.38 3.26l-3.539 12.298 3.075 0.885 3.539-12.298-3.075-0.885zM113.365 14.4l-2.733 0.022 0.026 3.2 2.733-0.022-0.026-3.2z"></path>
</symbol>

</defs>
</svg>
